<svg xmlns="http://www.w3.org/2000/svg" version="1.1" xmlns:xlink="http://www.w3.org/1999/xlink" xmlns:svgjs="http://svgjs.com/svgjs" width="512" height="512" x="0" y="0" viewBox="0 0 64 64" style="enable-background:new 0 0 512 512" xml:space="preserve" class=""><g><path d="M55 48h-4v-7a1 1 0 0 0-1-1h-8a1 1 0 0 0-1 1v7h-4v-7a1 1 0 0 0-1-1h-8a1 1 0 0 0-1 1v7h-5v-7a1 1 0 0 0-1-1h-8a1 1 0 0 0-1 1v7H9a7 7 0 0 0 0 14h46a7 7 0 0 0 0-14Zm-12-6h2v2h2v-2h2v6h-6Zm-14 0h2v2h2v-2h2v6h-6Zm-15 0h2v2h2v-2h2v6h-6Zm41 18H9a5 5 0 0 1 0-10h46a5 5 0 0 1 0 10Z" fill="#2f9b4e" data-original="#000000" opacity="1" class=""></path><path d="M12 52a3 3 0 1 0 3 3 3 3 0 0 0-3-3Zm0 4a1 1 0 1 1 1-1 1 1 0 0 1-1 1ZM22 52a3 3 0 1 0 3 3 3 3 0 0 0-3-3Zm0 4a1 1 0 1 1 1-1 1 1 0 0 1-1 1ZM32 52a3 3 0 1 0 3 3 3 3 0 0 0-3-3Zm0 4a1 1 0 1 1 1-1 1 1 0 0 1-1 1ZM42 52a3 3 0 1 0 3 3 3 3 0 0 0-3-3Zm0 4a1 1 0 1 1 1-1 1 1 0 0 1-1 1ZM52 52a3 3 0 1 0 3 3 3 3 0 0 0-3-3Zm0 4a1 1 0 1 1 1-1 1 1 0 0 1-1 1ZM42 14v-4a1 1 0 0 0-.757-.97l-1.293-.323.686-1.143a1 1 0 0 0-.151-1.221l-2.828-2.828a1 1 0 0 0-1.222-.151l-1.142.686-.323-1.292A1 1 0 0 0 34 2h-4a1 1 0 0 0-.97.758l-.323 1.292-1.142-.686a1 1 0 0 0-1.222.151l-2.828 2.828a1 1 0 0 0-.151 1.221l.686 1.143-1.293.323A1 1 0 0 0 22 10v4a1 1 0 0 0 .757.97l1.292.323-.685 1.142a1 1 0 0 0 .151 1.221l2.828 2.829a1 1 0 0 0 1.222.151l1.142-.686.323 1.292A1 1 0 0 0 30 22h1v2.184A3 3 0 0 0 29 27v1.7l-1.832 2.748a1 1 0 0 0-.063 1l2 4a1 1 0 0 0 1.79-.894l-1.741-3.481L30.535 30h2.93l1.381 2.072-1.746 3.481a1 1 0 0 0 1.79.894l2-4a1 1 0 0 0-.063-1L35 28.7V27a3 3 0 0 0-2-2.816V22h1a1 1 0 0 0 .97-.758l.323-1.292 1.142.686a1 1 0 0 0 1.222-.151l2.828-2.829a1 1 0 0 0 .151-1.221l-.685-1.142 1.292-.323A1 1 0 0 0 42 14Zm-9 14h-2v-1a1 1 0 0 1 2 0Zm7-14.781-1.844.462a1 1 0 0 0-.615 1.484l.978 1.629-1.719 1.725-1.63-.978a1 1 0 0 0-1.485.615L33.219 20h-2.438l-.461-1.844a1 1 0 0 0-1.485-.615l-1.63.978-1.724-1.725.978-1.629a1 1 0 0 0-.615-1.484L24 13.219v-2.438l1.844-.462a1 1 0 0 0 .615-1.484l-.978-1.63 1.724-1.725 1.63.979a1 1 0 0 0 1.485-.615L30.781 4h2.438l.461 1.844a1 1 0 0 0 1.485.615L36.8 5.48l1.724 1.725-.978 1.63a1 1 0 0 0 .615 1.484l1.839.462Z" fill="#2f9b4e" data-original="#000000" opacity="1" class=""></path><path d="M32 8a4 4 0 1 0 4 4 4 4 0 0 0-4-4Zm0 6a2 2 0 1 1 2-2 2 2 0 0 1-2 2ZM5 15h5v6.184A3 3 0 0 0 8 24v1.7l-1.832 2.745a1 1 0 0 0-.063 1l2 4a1 1 0 0 0 1.79-.894l-1.741-3.479L9.535 27h2.93l1.381 2.072-1.741 3.481a1 1 0 0 0 1.79.894l2-4a1 1 0 0 0-.063-1L14 25.7V24a3 3 0 0 0-2-2.816V15h7.871v-2H5a1 1 0 0 1 0-2h14.968V9H5a3 3 0 0 0 0 6Zm7 10h-2v-1a1 1 0 0 1 2 0ZM59 9H43.968v2H59a1 1 0 0 1 0 2H44v2h8v6.184A3 3 0 0 0 50 24v1.7l-1.832 2.748a1 1 0 0 0-.063 1l2 4a1 1 0 0 0 1.79-.894l-1.741-3.481L51.535 27h2.93l1.381 2.072-1.741 3.481a1 1 0 0 0 1.79.894l2-4a1 1 0 0 0-.063-1L56 25.7V24a3 3 0 0 0-2-2.816V15h5a3 3 0 0 0 0-6Zm-5 16h-2v-1a1 1 0 0 1 2 0Z" fill="#2f9b4e" data-original="#000000" opacity="1" class=""></path></g></svg>