<svg xmlns="http://www.w3.org/2000/svg" version="1.1" xmlns:xlink="http://www.w3.org/1999/xlink" xmlns:svgjs="http://svgjs.com/svgjs" width="512" height="512" x="0" y="0" viewBox="0 0 173.397 173.397" style="enable-background:new 0 0 512 512" xml:space="preserve" fill-rule="evenodd" class=""><g><path d="M150.987 163.436H17.393a4.646 4.646 0 0 1-4.641-4.64v-11.367a35.334 35.334 0 0 1 6.918-21.075c4.523-6.153 10.763-10.605 18.04-12.873l11.013-3.452 9.38-2.93 6.82-2.116c1.698-1.225 2.703-3.208 2.703-5.35v-6.137a1.783 1.783 0 0 1 3.564 0v6.138c0 3.418-1.68 6.58-4.49 8.455a1.797 1.797 0 0 1-.46.217l-7.079 2.196-9.374 2.93-11.013 3.45c-13.437 4.188-22.458 16.464-22.458 30.547v11.366c0 .582.492 1.077 1.077 1.077h133.594c.581 0 1.076-.495 1.076-1.077V147.43c0-4.721-1.024-9.3-3.041-13.606a1.783 1.783 0 0 1 3.23-1.513 35.39 35.39 0 0 1 3.375 15.119v11.366a4.646 4.646 0 0 1-4.64 4.641z" fill="#2f9b4e" data-original="#000000" class="" opacity="1"></path><path d="M128.603 116.476c-.176 0-.356-.028-.532-.084l-9.448-2.963-9.377-2.927-7.073-2.197a1.798 1.798 0 0 1-.46-.216c-2.813-1.875-4.49-5.037-4.49-8.455v-6.138a1.783 1.783 0 0 1 3.564 0v6.138c0 2.14 1.006 4.124 2.704 5.349l6.816 2.116 9.38 2.93 9.448 2.963a1.782 1.782 0 0 1-.532 3.484zM38.866 163.436a1.783 1.783 0 0 1-1.782-1.782v-16.873c0-4.1 3.335-7.431 7.431-7.431h4.777a1.782 1.782 0 0 1 0 3.564h-4.777a3.873 3.873 0 0 0-3.867 3.867v16.873c0 .984-.798 1.782-1.782 1.782zM129.581 163.436a1.78 1.78 0 0 1-1.782-1.782v-16.873a3.873 3.873 0 0 0-3.867-3.867h-4.777a1.783 1.783 0 0 1 0-3.564h4.777c4.096 0 7.43 3.331 7.43 7.43l.001 16.874c0 .984-.798 1.782-1.782 1.782zM109.778 140.913H58.635a1.783 1.783 0 0 1 0-3.564h51.143a1.782 1.782 0 0 1 0 3.564z" fill="#2f9b4e" data-original="#000000" class="" opacity="1"></path><path d="M53.926 149.526c-3.557 0-6.453-2.911-6.453-6.49V111.73a1.782 1.782 0 0 1 3.564 0v31.305c0 1.612 1.296 2.927 2.89 2.927a2.93 2.93 0 0 0 2.926-2.927V108.8a1.782 1.782 0 0 1 3.564 0v34.235c0 3.58-2.911 6.491-6.49 6.491zM114.484 149.523a6.494 6.494 0 0 1-6.488-6.487V108.8a1.782 1.782 0 0 1 3.564 0v34.235a2.927 2.927 0 0 0 2.924 2.924c1.593 0 2.89-1.312 2.89-2.924V111.73a1.782 1.782 0 0 1 3.563 0v31.305c0 3.58-2.896 6.488-6.453 6.488zM84.224 100.494c-2.77 0-5.538-.51-8.177-1.538a38.348 38.348 0 0 1-17.879-14.153 38.36 38.36 0 0 1-6.754-21.777v-9.55a1.781 1.781 0 1 1 3.564 0v9.55c0 14.333 8.985 27.438 22.359 32.608a18.971 18.971 0 0 0 13.77.003c13.378-5.173 22.362-18.278 22.362-32.611v-9.55a1.78 1.78 0 0 1 1.782-1.783 1.78 1.78 0 0 1 1.782 1.782v9.55a38.358 38.358 0 0 1-6.754 21.778A38.367 38.367 0 0 1 92.397 98.96a22.553 22.553 0 0 1-8.174 1.534z" fill="#2f9b4e" data-original="#000000" class="" opacity="1"></path><path d="M119.749 52.466a1.783 1.783 0 0 1-1.782-1.782v-9.832c0-15.066-12.26-27.327-27.33-27.327H77.773c-15.07 0-27.327 12.26-27.327 27.327v9.832a1.782 1.782 0 0 1-3.564 0v-9.832c0-17.034 13.857-30.89 30.891-30.89h12.864c17.034 0 30.894 13.856 30.894 30.89v9.832c0 .984-.798 1.782-1.782 1.782z" fill="#2f9b4e" data-original="#000000" class="" opacity="1"></path><path d="M50.86 51.693h66.686c-6.862-2.701-18.463-5.584-31.278-5.433H82.2c-12.913-.16-24.515 2.735-31.34 5.433zm71.609 3.564h-76.49a2.484 2.484 0 0 1-2.401-1.866 2.431 2.431 0 0 1 1.166-2.753c5.473-3.186 20.484-8.14 37.481-7.942h4.022c16.877-.216 31.933 4.762 37.459 7.945l.015.006a2.451 2.451 0 0 1 1.123 2.785 2.442 2.442 0 0 1-2.375 1.825zM84.224 118.462c-11.38 0-20.295-5.21-20.295-11.858a1.782 1.782 0 0 1 3.564 0c0 4.006 6.722 8.294 16.73 8.294 10.009 0 16.732-4.288 16.732-8.294a1.782 1.782 0 0 1 3.563 0c0 6.648-8.916 11.858-20.295 11.858zM13.776 98.69l2.648 1.853c.19.13.353.297.477.492l1.12 1.73 1.117-1.73a1.78 1.78 0 0 1 .479-.495l2.667-1.85-2.667-1.847a1.796 1.796 0 0 1-.48-.498l-1.116-1.73-1.12 1.73a1.768 1.768 0 0 1-.477.495zm4.245 9.139c-.607 0-1.17-.306-1.498-.814l-2.425-3.752-4.455-3.113a1.78 1.78 0 0 1 0-2.92l4.455-3.113 2.425-3.75a1.78 1.78 0 0 1 2.992 0l2.422 3.747 4.49 3.113a1.786 1.786 0 0 1 0 2.93l-4.49 3.108-2.422 3.75a1.78 1.78 0 0 1-1.494.814zM32.44 80.91l2.667 1.847c.19.133.353.303.48.498l1.107 1.714 1.09-1.704c.127-.202.29-.372.485-.508l2.664-1.847-2.664-1.847a1.765 1.765 0 0 1-.486-.507l-1.089-1.705-1.107 1.714c-.127.198-.291.365-.48.498zm4.267 9.14c-.606 0-1.17-.307-1.498-.814l-2.422-3.75-4.489-3.11a1.786 1.786 0 0 1 0-2.93l4.49-3.111 2.422-3.747a1.784 1.784 0 0 1 1.5-.817 1.781 1.781 0 0 1 1.497.826l2.389 3.74 4.48 3.11a1.78 1.78 0 0 1 0 2.93l-4.48 3.106-2.389 3.743c-.324.51-.89.82-1.497.823zM145.616 101.344c-8.456 0-15.336 6.88-15.336 15.336 0 8.455 6.88 15.335 15.336 15.335 8.458 0 15.335-6.88 15.335-15.335 0-8.456-6.877-15.336-15.335-15.336zm0 34.235c-10.42 0-18.9-8.48-18.9-18.9 0-10.422 8.48-18.899 18.9-18.899 10.423 0 18.9 8.477 18.9 18.9 0 10.42-8.478 18.9-18.9 18.9z" fill="#2f9b4e" data-original="#000000" class="" opacity="1"></path><path d="M142.166 124.563a1.78 1.78 0 0 1-1.256-.517l-5.3-5.265a1.783 1.783 0 0 1-.009-2.522 1.786 1.786 0 0 1 2.521-.006l4.038 4.013 10.946-10.946a1.783 1.783 0 0 1 2.52 2.518l-12.2 12.202c-.35.35-.805.523-1.26.523z" fill="#2f9b4e" data-original="#000000" class="" opacity="1"></path></g></svg>