<svg xmlns="http://www.w3.org/2000/svg" version="1.1" xmlns:xlink="http://www.w3.org/1999/xlink" xmlns:svgjs="http://svgjs.com/svgjs" width="512" height="512" x="0" y="0" viewBox="0 0 512 512" style="enable-background:new 0 0 512 512" xml:space="preserve" class=""><g transform="matrix(1.0599999999999985,0,0,1.0599999999999985,-15.361187896728154,-15.359250869750753)"><path d="M188 417.4c-.4-4.1 2.6-7.7 6.7-8.1s7.7 2.6 8.1 6.7c.8 8.4 15.8 13 24.5 6 2.2-1.8 3.6-4.1 3.6-6.6 0-17.5-42.9-1.4-42.9-35.1 0-12.2 9.7-21.4 21.3-24.1v-5.1c0-4.1 3.3-7.4 7.7-7.4 4.2 0 7.5 3.4 7.4 7.5l-.1 4.9c11.7 2.7 21.5 11.9 21.5 24.2 0 4.1-3.3 7.4-7.4 7.4s-7.4-3.3-7.4-7.4c0-8.9-15.6-13.9-24.5-6.7-2.2 1.8-3.6 4.2-3.6 6.7 0 17.5 42.9 1.4 42.9 35.1 0 12.2-9.8 21.5-21.5 24.1l-.1 5.1c0 4.1-3.3 7.4-7.4 7.4s-7.4-3.3-7.4-7.4v-5.1c-11.1-2.5-20.3-10.7-21.4-22.1zm28.8-103.5c19.2 0 37 6.5 51.1 17.4v-72c0-4.1 3.3-7.4 7.5-7.4h36.8c4.1 0 7.5 3.3 7.5 7.4v146.3c0 4.1-3.3 7.5-7.5 7.5h-12.8c-7.2 39.4-41.7 68.7-82.6 68.7-51.1 0-90.3-45.2-83.1-95.8-.4.1-.7.1-1 .1-4.3.6-8.7.7-13.2.2-8.3.9-16.4-.1-24-2.7-27.3-9.4-44.7-38.1-49.6-66.8-2.9-16.8-1.9-35.1 4.2-52.7.9-2.7 3.2-4.5 5.8-4.9 3.3-.6 6.6-.9 9.9-.8.6-41.8 16.9-85.8 49.2-110 2.7-2.1 6.5-1.9 9 .1 14.9 11.3 27.4 27.8 36 47.7 7.9 18.3 12.6 39.6 13 62.2 3.2 0 6.5.2 9.9.8 2.6.5 4.8 2.2 5.8 4.9 6 17.3 7.2 35.7 4.1 53.3 7.6-2.3 15.6-3.5 24-3.5zm66 32.1c11.2 14.3 18 32.6 17.9 52.2h4V266.7h-21.9zm-145.2 23.8c11.5-32.4 37.8-44.7 38.2-45.3 2.5-8.4 3.8-17.4 3.7-26.6-.1-8.2-1.2-16.5-3.6-24.7-9.4-.6-18.3 2.2-26.1 7.5-9.3 6.3-17.1 16.2-22.5 28 7.4 19.6 8.9 41.6 3.9 62.6 2.2-.3 4.4-.8 6.4-1.5zm128-20.8c-27-27-70.7-27-97.7 0s-27 70.7 0 97.7 70.7 27 97.7 0 27-70.7 0-97.7zm-18.8-226.4c0 18.9-15.3 34.2-34.2 34.2s-34.2-15.3-34.2-34.2c0-14.7 8.1-23.6 14.8-35l13-22.5c2.9-5 10-4.9 12.8 0l13 22.5c6.6 11.3 14.8 20.2 14.8 35zm-20.5 13.7c3.5-3.5 5.7-8.3 5.7-13.7 0-9.6-7.3-18.2-12.7-27.6l-6.6-11.4c-3.7 6.4-7.2 12.7-11.1 18.8-4.3 6.9-8.2 12.9-8.2 20.2-.1 17.1 20.8 25.8 32.9 13.7zM212.7 30.2c43.6 0 78.9 35.3 78.9 78.9 0 43.5-35.3 78.9-78.9 78.9-43.5 0-78.8-35.3-78.8-78.9-.1-43.6 35.2-78.9 78.8-78.9zm45.2 33.6c-25-25-65.5-25-90.5 0s-25 65.5 0 90.5 65.5 25 90.5 0 25-65.5 0-90.5zm209.8 231.7v110.1c0 4.1-3.3 7.5-7.4 7.5h-36.8c-4.1 0-7.4-3.3-7.4-7.5V240.5c0-4.1 3.3-7.5 7.4-7.5h36.8c4.1 0 7.4 3.3 7.4 7.5zm-14.9 102.7V247.9h-21.9v150.2h21.9zm-74-83.1h-21.9v83.1h21.9zm-29.4-14.9h36.8c4.1 0 7.4 3.3 7.4 7.4v97.9c0 4.1-3.3 7.5-7.4 7.5h-36.8c-4.1 0-7.4-3.3-7.4-7.5v-97.9c0-4 3.3-7.4 7.4-7.4zm1.8-36c-2.7-3-2.5-7.7.6-10.4 3-2.7 7.7-2.5 10.5.6l2.6 2.9 2.6-2.9c2.7-3 7.4-3.3 10.5-.6 3 2.7 3.3 7.4.6 10.4l-8.7 9.7c-3 2.7-7.7 2.5-10.4-.6zm45-19.7c-2.7 3.1-7.4 3.3-10.5.6s-3.3-7.4-.6-10.5l6.2-6.9c2.7-3.1 7.4-3.3 10.5-.6s3.3 7.4.6 10.5zm24.6-27.4c-2.7 3.1-7.4 3.3-10.4.6-3.1-2.7-3.3-7.4-.6-10.5l7.2-8.1c2.7-3.1 7.4-3.3 10.5-.6 3 2.7 3.3 7.4.6 10.5zm25.1-28.1c-2.7 3-7.4 3.3-10.4.6-3.1-2.7-3.3-7.4-.6-10.5l9.6-10.6c2.7-3.1 7.4-3.3 10.5-.6 3 2.7 3.3 7.4.6 10.5zm-101.3 45.7c2.7 3 2.5 7.7-.6 10.5-3.1 2.7-7.7 2.5-10.5-.6l-6.2-6.9c-2.7-3.1-2.5-7.7.6-10.5 3.1-2.7 7.7-2.5 10.5.6zm-22.8-25.5c2.7 3 2.5 7.7-.6 10.5-3.1 2.7-7.7 2.5-10.5-.6l-21.1-23.5-66 70.3c-2.8 3-7.5 3.1-10.5.3s-3.1-7.5-.3-10.5l71.6-76.2c3-3.1 8-3.1 10.9.1zm10.4-109.7c3.5 37 39 33.4 61.9 56.7 6.2-25.8-17.9-55.6-45.4-58.7-5.8-.6-11.5.1-16.5 2zm54.2 70.4c-18.6-23.1-58.7-20.4-67.5-59.4-3.7 6-5.1 13.4-4.3 21.1 2.5 22.7 23.4 43.6 46.1 46.1 9.8 1.1 19.2-1.4 25.7-7.8zm-86.5-36.7c-4.2-38.2 30.6-61.1 67-46.1.7-15 5.9-28.6 14-38.7 19.5-24.3 51.8-24.3 71.3 0 18.7 23.3 18.7 60.5 0 83.8-10.5 13.1-26 20.4-42.3 17.7-.9 27.5-23 45.7-50.7 42.6-29.8-3.3-56.1-29.5-59.3-59.3zM382 95.7c13.1 9.8 22.5 23.7 26.2 38.6 2.6.8 5.2 1.3 8 1.3 1.2-11.5-2.6-22.4-6.3-33-6.4-18.4-12.5-36.1.5-56.8-6.9 1.6-13.1 5.9-17.9 11.9-7.9 9.8-11.8 23.8-10.5 38zm45.6-48.3c-23.7 28.6 3.9 51.2 3.7 83.9 22.6-13.8 26.7-52 9.4-73.6-3.7-4.6-8.2-8.1-13.1-10.3zM106.4 215.5c-4.1 0-7.4-3.3-7.4-7.4s3.3-7.4 7.4-7.4h1.8c4.1 0 7.4 3.3 7.4 7.4s-3.3 7.4-7.4 7.4zm24.1 24.5c-4.1 0-7.5-3.3-7.5-7.4s3.3-7.5 7.5-7.5h1.8c4.1 0 7.5 3.3 7.5 7.5 0 4.1-3.3 7.4-7.5 7.4zm0 24c-4.1 0-7.5-3.3-7.5-7.5 0-4.1 3.3-7.4 7.5-7.4h1.8c4.1 0 7.5 3.3 7.5 7.4s-3.3 7.5-7.5 7.5zm0-48.5c-4.1 0-7.5-3.3-7.5-7.4s3.3-7.4 7.5-7.4h1.8c4.1 0 7.5 3.3 7.5 7.4s-3.3 7.4-7.5 7.4zM106.4 240c-4.1 0-7.4-3.3-7.4-7.4s3.3-7.5 7.4-7.5h1.8c4.1 0 7.4 3.3 7.4 7.5 0 4.1-3.3 7.4-7.4 7.4zm0 24c-4.1 0-7.4-3.3-7.4-7.5 0-4.1 3.3-7.4 7.4-7.4h1.8c4.1 0 7.4 3.3 7.4 7.4s-3.3 7.5-7.4 7.5zm-25.8-3.4c16.2 4.8 29.5 16.6 38.7 31.7 9.1-14.8 22.4-26.9 38.7-31.7-.1-36-12.7-74.1-38.7-96.7-26 22.5-38.6 60.6-38.7 96.7zm19.7 109c4.9 1.7 10.1 2.5 15.5 2.1 7.4-25.8 2.9-55.4-12.3-76.3-10-13.8-24.2-23.2-40.9-22.1-7.4 25.8-2.9 55.4 12.3 76.3 7 9.5 15.7 16.6 25.4 20z" fill="#2f9b4e" data-original="#000000" opacity="1" class=""></path></g></svg>