<svg xmlns="http://www.w3.org/2000/svg" version="1.1" xmlns:xlink="http://www.w3.org/1999/xlink" xmlns:svgjs="http://svgjs.com/svgjs" width="512" height="512" x="0" y="0" viewBox="0 0 64 64" style="enable-background:new 0 0 512 512" xml:space="preserve" class=""><g><path d="M13 45h-2v2c-1.654 0-3 1.346-3 3s1.346 3 3 3h2a1.001 1.001 0 0 1 0 2h-3v-1H8v3h3v2h2v-2c1.654 0 3-1.346 3-3s-1.346-3-3-3h-2a1.001 1.001 0 0 1 0-2h3v1h2v-3h-3zM51 29h2v-2c1.654 0 3-1.346 3-3s-1.346-3-3-3h-2a1.001 1.001 0 0 1 0-2h3v1h2v-3h-3v-2h-2v2c-1.654 0-3 1.346-3 3s1.346 3 3 3h2a1.001 1.001 0 0 1 0 2h-3v-1h-2v3h3z" fill="#2f9b4e" data-original="#000000" opacity="1" class=""></path><path d="M52 33c6.065 0 11-4.935 11-11s-4.935-11-11-11-11 4.935-11 11 4.935 11 11 11zm0-20c4.963 0 9 4.038 9 9s-4.037 9-9 9-9-4.038-9-9 4.037-9 9-9z" fill="#2f9b4e" data-original="#000000" opacity="1" class=""></path><path d="M52 37h7.586L47 49.586l-5-5-7.083 7.083-8.954-6.964-3.737 3.27a11.049 11.049 0 0 0-3.922-4.974H37v-4.505c0-3.697-2.318-7.073-5.769-8.4l-7.388-2.841-.618-2.473a8.013 8.013 0 0 0 3.511-4.781H27c2.206 0 4-1.794 4-4 0-.79-.238-1.523-.635-2.145.415-1.641.635-3.325.635-5.018V7.279l-2.441-.814 1.957-2.936-2.536-1.013A21.077 21.077 0 0 0 20.112 1h-3.064c-2.191 0-4.313.643-6.139 1.858A8.762 8.762 0 0 0 7 10.164c0 1.209.268 2.413.752 3.519A3.966 3.966 0 0 0 7 16c0 2.206 1.794 4 4 4h.263a8.015 8.015 0 0 0 3.511 4.78l-.618 2.473-7.388 2.841C3.318 31.421 1 34.797 1 38.495V43h4.695C2.861 44.992 1 48.28 1 52c0 6.065 4.935 11 11 11h51v-2h-6V42.414l4-4V46h2V35H52zm-3 13.414V61h-4V50.414l2 2zm-6-2V61h-4V50.414l3-3zm-7.917 5.918L37 52.414V61h-4v-8.289zM27 48.045l4 3.111V61h-4zM27 18v-4c1.103 0 2 .897 2 2s-.897 2-2 2zm-16 0c-1.103 0-2-.897-2-2s.897-2 2-2zm.25-6H11c-.581 0-1.13.131-1.629.355A6.793 6.793 0 0 1 9 10.164a6.767 6.767 0 0 1 3.019-5.641A9.035 9.035 0 0 1 17.048 3h3.064c2.452 0 4.85.462 7.126 1.373l.246.098-2.043 3.064L29 8.721v.117c0 1.186-.12 2.368-.346 3.53A3.968 3.968 0 0 0 27 12h-.25a4.382 4.382 0 0 0-1.043-1.708A4.387 4.387 0 0 0 22.586 9h-7.172a4.387 4.387 0 0 0-3.121 1.292A4.382 4.382 0 0 0 11.25 12zM13 18v-4.585c0-.645.251-1.251.707-1.707A2.396 2.396 0 0 1 15.414 11h7.172c.645 0 1.251.251 1.707.708.456.455.707 1.061.707 1.706V18c0 3.308-2.691 6-5.999 6A6.008 6.008 0 0 1 13 18zm6.001 8c.828 0 1.627-.127 2.379-.361l.576 2.304A3.155 3.155 0 0 1 19 30a3.153 3.153 0 0 1-2.955-2.059l.575-2.303a7.976 7.976 0 0 0 2.381.362zM3 41v-2.505a7.044 7.044 0 0 1 4.487-6.534l6.97-2.681A5.15 5.15 0 0 0 19 32a5.152 5.152 0 0 0 4.544-2.72l6.969 2.681A7.042 7.042 0 0 1 35 38.495V41zm0 11c0-4.962 4.037-9 9-9s9 4.038 9 9-4.037 9-9 9-9-4.038-9-9zm20 0c0-.647-.067-1.277-.175-1.893L25 48.203V61h-6.695C21.139 59.008 23 55.72 23 52zm32 9h-4V48.414l4-4z" fill="#2f9b4e" data-original="#000000" opacity="1" class=""></path></g></svg>