<svg xmlns="http://www.w3.org/2000/svg" version="1.1" xmlns:xlink="http://www.w3.org/1999/xlink" xmlns:svgjs="http://svgjs.com/svgjs" width="512" height="512" x="0" y="0" viewBox="0 0 64 64" style="enable-background:new 0 0 512 512" xml:space="preserve"><g><g data-name="12-Research"><path d="m34.27 53.01-.538-1.926A25 25 0 1 0 2 27a24.8 24.8 0 0 0 4.807 14.741l-1.614 1.182A27 27 0 1 1 54 27a27.079 27.079 0 0 1-19.73 26.01z" fill="#2f9b4e" data-original="#000000" opacity="1"></path><path d="m34.333 47.747-.666-1.885a19.987 19.987 0 1 0-26.1-14.1l-1.942.474a22 22 0 1 1 28.705 15.51z" fill="#2f9b4e" data-original="#000000" opacity="1"></path><path d="M12 27h-2a17.019 17.019 0 0 1 17-17v2a15.017 15.017 0 0 0-15 15zM59 64a1 1 0 0 1-.707-.293l-9-9a1 1 0 0 1 0-1.414l4-4a1 1 0 0 1 1.414 0l9 9a1 1 0 0 1 0 1.414l-4 4A1 1 0 0 1 59 64zm-7.586-10L59 61.586 61.586 59 54 51.414z" fill="#2f9b4e" data-original="#000000" opacity="1"></path><path d="M48 57a1 1 0 0 1-.707-.293l-3-3a1 1 0 0 1 0-1.414l8-8a1 1 0 0 1 1.414 0l3 3a1 1 0 0 1 0 1.414l-2 2-1.414-1.414L54.586 48 53 46.414 46.414 53 48 54.586l1.293-1.293 1.414 1.414-2 2A1 1 0 0 1 48 57z" fill="#2f9b4e" data-original="#000000" opacity="1"></path><path d="m43.284 46.708 1.414-1.414 4 4-1.415 1.413zM45.284 44.708l1.414-1.414 4 4-1.415 1.413zM18 40h-3v-2h2v-2H9v2h4v2H8a1 1 0 0 1-1-1v-4a1 1 0 0 1 1-1h10a1 1 0 0 1 1 1v4a1 1 0 0 1-1 1z" fill="#2f9b4e" data-original="#000000" opacity="1"></path><path d="M13 64a5.006 5.006 0 0 1-5-5V39h2v20a3 3 0 0 0 6 0V39h2v20a5.006 5.006 0 0 1-5 5zM32 40h-3v-2h2v-2h-8v2h4v2h-5a1 1 0 0 1-1-1v-4a1 1 0 0 1 1-1h10a1 1 0 0 1 1 1v4a1 1 0 0 1-1 1z" fill="#2f9b4e" data-original="#000000" opacity="1"></path><path d="M27 64a5.006 5.006 0 0 1-5-5V39h2v20a3 3 0 0 0 6 0V39h2v20a5.006 5.006 0 0 1-5 5zM27 30h-6a5.006 5.006 0 0 1-5-5v-2a1 1 0 0 1 1-1h6a5.006 5.006 0 0 1 5 5v2a1 1 0 0 1-1 1zm-9-6v1a3 3 0 0 0 3 3h5v-1a3 3 0 0 0-3-3zM33 22h-6a1 1 0 0 1-1-1v-2a5.006 5.006 0 0 1 5-5h6a1 1 0 0 1 1 1v2a5.006 5.006 0 0 1-5 5zm-5-2h5a3 3 0 0 0 3-3v-1h-5a3 3 0 0 0-3 3z" fill="#2f9b4e" data-original="#000000" opacity="1"></path><path d="M26 21h2v14h-2zM10 29h2v2h-2zM9 43h8v2H9zM23 47h8v2h-8zM11 46h2v2h-2zM11 50h2v2h-2zM25 50h2v2h-2zM25 54h2v2h-2zM56 1h2v2h-2zM60 1h3v2h-3zM56 5h7v2h-7zM59 15h-7v-2h6V9h2v5a1 1 0 0 1-1 1zM36 35h2v2h-2zM40 35h3v2h-3zM36 31h7v2h-7zM40 29h-2v-2h-6v-2h7a1 1 0 0 1 1 1z" fill="#2f9b4e" data-original="#000000" opacity="1"></path></g></g></svg>