<svg xmlns="http://www.w3.org/2000/svg" version="1.1" xmlns:xlink="http://www.w3.org/1999/xlink" xmlns:svgjs="http://svgjs.com/svgjs" width="512" height="512" x="0" y="0" viewBox="0 0 64 64" style="enable-background:new 0 0 512 512" xml:space="preserve" class=""><g><circle cx="18" cy="16" r="1" fill="#2f9b4e" data-original="#000000" opacity="1" class=""></circle><circle cx="26" cy="16" r="1" fill="#2f9b4e" data-original="#000000" opacity="1" class=""></circle><path d="M27 21h-2c0 1.103-.897 2-2 2h-4v2h4c2.206 0 4-1.794 4-4z" fill="#2f9b4e" data-original="#000000" opacity="1" class=""></path><path d="M59.404 9.051A2.995 2.995 0 0 0 56.559 7H34.771a7.875 7.875 0 0 0-2.064-3.707L32 2.586l-.707.707a7.711 7.711 0 0 1-1.715 1.293 6.35 6.35 0 0 0-3.131-3.48l-.519-.26-.483.322A10.878 10.878 0 0 1 19.395 3h-2.006C12.763 3 9 6.763 9 11.389c0 .464.038.929.114 1.379l.65 3.9A3.964 3.964 0 0 0 9 19c0 2.206 1.794 4 4 4h.08a7.01 7.01 0 0 0 3.6 5.16l-.516 2.062A22.908 22.908 0 0 0 2.07 43.232l-.48 1.152A7.61 7.61 0 0 0 1 47.333C1 51.561 4.439 55 8.667 55H9v8h50c1.103 0 2-.897 2-2V24.816A2.996 2.996 0 0 0 63 22v-2.162zm-1.896.633L60.613 19H52.78l-2.5-10h6.278a1 1 0 0 1 .95.684zM31 17c1.103 0 2 .897 2 2s-.897 2-2 2zm3.996-8h3.223l2.5 10H35c0-.873-.289-1.674-.764-2.333l.229-1.374c.346-2.076.522-4.193.531-6.293zm7.784 10-2.5-10h7.939l2.5 10zm-8.336 2H41v1a1 1 0 0 1-1 1h-6a1 1 0 0 1-.915-.602A4.016 4.016 0 0 0 34.444 21zM43 21h8v1a1 1 0 0 1-1 1h-6a1 1 0 0 1-1-1zm-32-2c0-1.103.897-2 2-2v4c-1.103 0-2-.897-2-2zm2-5v1c-.509 0-.992.105-1.44.279l-.473-2.841A6.396 6.396 0 0 1 17.389 5h2.006c2.347 0 4.626-.632 6.63-1.833.813.54 1.42 1.33 1.734 2.271l.657 1.972 1.767-.882a9.77 9.77 0 0 0 1.721-1.101A5.886 5.886 0 0 1 33 8.828c0 2.047-.171 4.111-.508 6.136l-.053.315A3.955 3.955 0 0 0 31 15v-1c0-1.654-1.346-3-3-3h-3c-2.206 0-4-1.794-4-4h-2c0 .701.121 1.374.343 2H18c-2.757 0-5 2.243-5 5zm2 8v-8c0-1.654 1.346-3 3-3h2.531c1.1 1.227 2.695 2 4.469 2h3a1 1 0 0 1 1 1v8c0 2.757-2.243 5-5 5h-4c-2.757 0-5-2.243-5-5zm34 7h2v2h-2zm4 4v-4h2v10H45V29h2v4zm-4 8v2h-4v-2zm2 4v-4h4v16H39v-2.936a7.673 7.673 0 0 0 4-6.731c0-1.019-.198-2.01-.59-2.948l-.48-1.152a23.166 23.166 0 0 0-1.076-2.232H43v4h8zm-10.916-.998.48 1.152c.29.694.436 1.426.436 2.179A5.673 5.673 0 0 1 35.333 53H31v-4h8v-2h-4v-4h-2v4h-4v-2c0-1.103-.897-2-2-2h-1.28l-1.641-4.923.762-1.523 2.5 2 2.655-5.309a20.907 20.907 0 0 1 10.088 10.757zM17 49c1.103 0 2 .897 2 2s-.897 2-2 2h-2v-4zm0 6c2.206 0 4-1.794 4-4s-1.794-4-4-4v-2h10v2c-2.206 0-4 1.794-4 4s1.794 4 4 4v2H17zm3.035-21.709-2.694 2.155-1.497-2.994c.369-.14.742-.27 1.121-.389zm1.965.99 1.244.995L22.382 37h-.764l-.862-1.724zM21.72 39h.559l1.333 4h-3.226zM29 49v4h-2c-1.103 0-2-.897-2-2s.897-2 2-2zm-.844-16.547-1.497 2.994-2.694-2.155 3.07-1.228c.379.119.752.249 1.121.389zM20 29h4c.491 0 .97-.052 1.432-.149l.386 1.544L22 31.923l-3.818-1.527.386-1.544c.462.096.941.148 1.432.148zM3 47.333c0-.753.146-1.485.436-2.179l.48-1.152a20.915 20.915 0 0 1 10.088-10.757l2.655 5.309 2.5-2 .762 1.523L18.28 43H17c-1.103 0-2 .897-2 2v2h-4v-4H9v4H5v2h8v4H8.667A5.673 5.673 0 0 1 3 47.333zM11 55h4v2c0 1.103.897 2 2 2h10c1.103 0 2-.897 2-2v-2h4v6H11zm24 6v-6h.333c.573 0 1.13-.068 1.667-.188V57c0 1.103.897 2 2 2h16c1.103 0 2-.897 2-2V29c0-1.103-.897-2-2-2H45c-1.103 0-2 .897-2 2v10h-3.383c-2.828-4.1-6.929-7.184-11.78-8.775l-.517-2.065a7.015 7.015 0 0 0 3.6-5.16H31c.061 0 .118-.015.179-.018A2.993 2.993 0 0 0 34 25h6a2.98 2.98 0 0 0 2-.78c.532.48 1.229.78 2 .78h6a2.98 2.98 0 0 0 2-.78c.532.48 1.229.78 2 .78h5v36zm25-38h-6a1 1 0 0 1-1-1v-1h8v1a1 1 0 0 1-1 1z" fill="#2f9b4e" data-original="#000000" opacity="1" class=""></path></g></svg>