<svg id="Layer_1" height="512" viewBox="0 0 512 512" width="512" xmlns="http://www.w3.org/2000/svg" data-name="Layer 1"><path d="m256.249.248c141.384 0 256 114.622 256 256s-114.615 256.006-256 256.006-255.999-114.624-255.999-256.007 114.623-256 256-256zm139.051 286.488a15.142 15.142 0 0 0 -6.846-14.3 9.943 9.943 0 0 1 -1.549-15.427 18.674 18.674 0 0 0 -3.9-29.608 9.543 9.543 0 0 1 -1.713-1.22c-10.84-9.6-33.956-8.408-68.711 3.554a9.937 9.937 0 0 1 -12.388-13.258c8.4-19.922 6.646-59.3-8.142-78.317-5.373-6.913-11.652-9.855-19.168-8.985.745 10.489.639 23 .55 34.072-.04 4.024-.071 7.831-.053 11.1a33.07 33.07 0 0 1 -5.28 18.353l-38.886 61.443a60.41 60.41 0 0 1 -25.175 22.859v85.181c2.857 1.136 5.812 2.228 8.714 3.3 6.691 2.48 13.6 5.044 19.492 8.163a13.027 13.027 0 0 0 6.522 1.638c40.488.279 81.547.044 122.066-.7a14.276 14.276 0 0 0 3.8-22.394 9.943 9.943 0 0 1 6.709-16.709 13.229 13.229 0 0 0 9.934-21.014 9.938 9.938 0 0 1 4.415-15.121 15.141 15.141 0 0 0 9.606-12.615zm-211.13 96.736v-127.648h-67.043v127.648zm227.879-144.846a38.762 38.762 0 0 0 -18.382-28.006c-8.1-6.793-18.96-10.378-32.3-10.658-10.733-.217-23.188 1.607-37.732 5.547a124.923 124.923 0 0 0 .887-31c-1.815-19.709-7.774-36.947-16.79-48.545-9.947-12.8-23.68-18.6-38.659-16.337a19.05 19.05 0 0 0 -16.084 20.206c.754 9.828.648 22.265.555 33.246-.036 4.1-.067 7.965-.049 11.359a13.278 13.278 0 0 1 -2.192 7.636l-38.879 61.446a44.694 44.694 0 0 1 -8.385 9.881v-7.516a9.932 9.932 0 0 0 -9.935-9.934h-86.916a9.932 9.932 0 0 0 -9.939 9.934v147.525a9.937 9.937 0 0 0 9.939 9.939h86.912a9.936 9.936 0 0 0 9.935-9.939v-9.952l1.814.67a150 150 0 0 1 17.087 7.082 32.8 32.8 0 0 0 15.689 3.958q16.572.112 33.247.115c30.46 0 61.066-.289 91.362-.856a9.914 9.914 0 0 0 3.447-.688 34.154 34.154 0 0 0 19.949-42.493 33.12 33.12 0 0 0 15.583-38.762 35.131 35.131 0 0 0 5.031-49.623 38.69 38.69 0 0 0 4.805-24.235z" fill="#32a353" fill-rule="evenodd"/></svg>