<?xml version="1.0" encoding="UTF-8"?>
<svg xmlns="http://www.w3.org/2000/svg" xmlns:xlink="http://www.w3.org/1999/xlink" version="1.1" id="Capa_1" x="0px" y="0px" viewBox="0 0 512 512" style="enable-background:new 0 0 512 512;" xml:space="preserve" width="512" height="512">
<g>
	<path style="fill:none;stroke:#32a353;stroke-width:20;stroke-linecap:round;stroke-linejoin:round;stroke-miterlimit:10;" d="&#10;&#9;&#9;M296.322,255.249h134.445c16.951,0,30.84,13.889,30.84,30.84c0,16.979-13.889,30.84-30.84,30.84c16.951,0,30.84,13.889,30.84,30.84&#10;&#9;&#9;c0,16.979-13.889,30.84-30.84,30.84c16.951,0,30.84,13.889,30.84,30.84c0,16.979-13.889,30.869-30.84,30.869h-23.47&#10;&#9;&#9;c16.951,0,30.84,13.861,30.84,30.84c0,16.951-13.889,30.84-30.84,30.84h-139.49c-32.314,0-89.431-16.1-114.319-37.133"/>
	<path style="fill:none;stroke:#32a353;stroke-width:20;stroke-linecap:round;stroke-linejoin:round;stroke-miterlimit:10;" d="&#10;&#9;&#9;M153.487,286.288c59.016-37.643,77.073-82.515,88.411-154.117c3.572-22.677,10.233-44.276,42.576-28.119&#10;&#9;&#9;c21.231,10.601,39.628,46.374,29.196,85.718l-17.348,65.479"/>
	
		<line style="fill:none;stroke:#32a353;stroke-width:20;stroke-linecap:round;stroke-linejoin:round;stroke-miterlimit:10;" x1="430.767" y1="316.93" x2="388.73" y2="316.93"/>
	
		<line style="fill:none;stroke:#32a353;stroke-width:20;stroke-linecap:round;stroke-linejoin:round;stroke-miterlimit:10;" x1="430.767" y1="378.61" x2="388.73" y2="378.61"/>
	
		<line style="fill:none;stroke:#32a353;stroke-width:20;stroke-linecap:round;stroke-linejoin:round;stroke-miterlimit:10;" x1="407.296" y1="440.319" x2="388.73" y2="440.319"/>
	<path style="fill:none;stroke:#32a353;stroke-width:20;stroke-linecap:round;stroke-linejoin:round;stroke-miterlimit:10;" d="&#10;&#9;&#9;M135.742,493.921H68.137c-9.751,0-17.745-7.994-17.745-17.745V274.978c0-9.751,7.994-17.745,17.745-17.745h67.605&#10;&#9;&#9;c9.751,0,17.745,7.994,17.745,17.745v201.199C153.487,485.928,145.493,493.921,135.742,493.921L135.742,493.921z"/>
	
		<line style="fill:none;stroke:#32a353;stroke-width:20;stroke-linecap:round;stroke-linejoin:round;stroke-miterlimit:10;" x1="153.487" y1="286.288" x2="153.487" y2="464.867"/>
	
		<line style="fill:none;stroke:#32a353;stroke-width:20;stroke-linecap:round;stroke-linejoin:round;stroke-miterlimit:10;" x1="104.279" y1="312.678" x2="104.279" y2="312.734"/>
	<path style="fill:none;stroke:#32a353;stroke-width:20;stroke-linecap:round;stroke-linejoin:round;stroke-miterlimit:10;" d="&#10;&#9;&#9;M186.964,57.593l-17.773-15.76 M368.151,57.593l17.773-15.76"/>
	
		<line style="fill:none;stroke:#32a353;stroke-width:20;stroke-linecap:round;stroke-linejoin:round;stroke-miterlimit:10;" x1="277.557" y1="33.754" x2="277.557" y2="10"/>
	
		<line style="fill:none;stroke:#32a353;stroke-width:20;stroke-linecap:round;stroke-linejoin:round;stroke-miterlimit:10;" x1="130.81" y1="128.344" x2="154.564" y2="129.336"/>
	
		<line style="fill:none;stroke:#32a353;stroke-width:20;stroke-linecap:round;stroke-linejoin:round;stroke-miterlimit:10;" x1="424.304" y1="128.344" x2="400.55" y2="129.336"/>
</g>















</svg>
